<?xml version="1.0" standalone="no"?>
<!DOCTYPE svg PUBLIC "-//W3C//DTD SVG 20010904//EN"
 "http://www.w3.org/TR/2001/REC-SVG-20010904/DTD/svg10.dtd">
<svg version="1.0" xmlns="http://www.w3.org/2000/svg"
 width="300.000000pt" height="300.000000pt" viewBox="0 0 300.000000 300.000000"
 preserveAspectRatio="xMidYMid meet">

<g transform="translate(0.000000,300.000000) scale(0.100000,-0.100000)"
fill="#000000" stroke="none">
<path d="M935 2543 c44 -23 74 -53 96 -95 16 -31 19 -59 19 -163 l0 -125 293
0 c253 1 288 3 262 14 -38 17 -90 72 -104 109 -15 40 -14 122 3 160 15 36 56
77 101 100 28 15 4 16 -335 16 -339 0 -363 -1 -335 -16z"/>
<path d="M1785 2539 c126 -73 142 -247 30 -336 -19 -15 -49 -33 -67 -40 -30
-10 -31 -12 -8 -12 40 -2 124 -45 163 -85 57 -56 80 -110 85 -196 5 -95 -21
-170 -79 -230 -42 -43 -128 -90 -166 -90 -12 0 -25 -4 -28 -10 -3 -5 -2 -10 4
-10 21 0 77 -59 172 -182 l100 -129 52 28 c29 15 90 66 138 113 71 71 93 100
131 180 104 213 104 404 1 620 -38 79 -59 107 -132 180 -113 113 -226 172
-386 204 -26 6 -27 5 -10 -5z"/>
<path d="M1050 1340 l0 -200 240 0 c132 0 240 2 240 5 0 3 -19 31 -42 61 -44
59 -57 116 -44 189 8 42 67 112 111 131 26 11 -8 13 -237 14 l-268 0 0 -200z"/>
</g>
</svg>
